<?xml version="1.0" encoding="utf-8"?>
<!-- Generator: Adobe Illustrator 19.2.1, SVG Export Plug-In . SVG Version: 6.00 Build 0)  -->
<svg version="1.1" id="Layer_1" xmlns="http://www.w3.org/2000/svg" xmlns:xlink="http://www.w3.org/1999/xlink" x="0px" y="0px"
	 viewBox="0 0 20 20" style="enable-background:new 0 0 20 20;" xml:space="preserve">
<g>
	<path d="M0.2,18.5c0-5.7,0-11.4,0-17.1c0,0,0-0.1,0-0.1c0.1-0.6,0.5-1,1.1-1.1c0.1,0,0.2,0,0.2-0.1c5.7,0,11.3,0,17,0
		c0,0,0.1,0,0.1,0c0.7,0.1,1.2,0.7,1.2,1.4c0,5.6,0,11.2,0,16.7c0,0.7-0.4,1.2-1.1,1.4c-0.1,0-0.2,0-0.3,0.1c-5.7,0-11.3,0-17,0
		c0,0-0.1,0-0.1,0c-0.6-0.1-1-0.4-1.2-1C0.2,18.7,0.2,18.6,0.2,18.5z M10.7,8.8c0-0.4,0-0.8,0-1.1c0-0.1,0-0.2-0.2-0.2
		c-0.8,0-1.7,0-2.5,0c-0.1,0-0.2,0-0.2,0.2c0,3,0,6.1,0,9.1c0,0.1,0,0.2,0.2,0.2c0.9,0,1.7,0,2.6,0c0.2,0,0.2,0,0.2-0.2
		c0-1.6,0-3.2,0-4.8c0-0.3,0.1-0.6,0.1-0.9c0.1-0.5,0.4-0.9,0.9-1c0.2-0.1,0.5-0.1,0.7-0.1c0.7,0,1.1,0.3,1.3,1
		c0.1,0.4,0.1,0.7,0.1,1.1c0,1.6,0,3.2,0,4.7c0,0.1,0,0.2,0.2,0.2c0.9,0,1.8,0,2.7,0c0.1,0,0.2,0,0.2-0.1c0-2,0-3.9,0-5.9
		c0-0.5-0.1-1.1-0.3-1.6c-0.3-0.8-0.8-1.4-1.6-1.8c-0.4-0.2-0.8-0.2-1.2-0.3c-0.7-0.1-1.5,0-2.1,0.4C11.3,8,10.9,8.3,10.7,8.8z
		 M3,12.2c0,1.5,0,3,0,4.5c0,0.2,0,0.2,0.2,0.2c0.9,0,1.7,0,2.6,0c0.2,0,0.2,0,0.2-0.2c0-3,0-6,0-9.1c0-0.2,0-0.2-0.2-0.2
		c-0.9,0-1.7,0-2.6,0C3,7.5,3,7.5,3,7.7C3,9.2,3,10.7,3,12.2z M2.8,4.6c0,1,0.8,1.7,1.7,1.7c0.9,0,1.7-0.8,1.7-1.7
		c0-0.9-0.8-1.7-1.7-1.7C3.6,2.9,2.8,3.6,2.8,4.6z"/>
</g>
</svg>
