<?xml version="1.0" encoding="utf-8"?>
<!-- Generator: Adobe Illustrator 19.2.1, SVG Export Plug-In . SVG Version: 6.00 Build 0)  -->
<svg version="1.1" id="Layer_1" xmlns="http://www.w3.org/2000/svg" xmlns:xlink="http://www.w3.org/1999/xlink" x="0px" y="0px"
	 viewBox="0 0 20 20" style="enable-background:new 0 0 20 20;" xml:space="preserve">
<style type="text/css">
	.st0{fill:#010101;}
</style>
<g id="_x34_6EXzS.tif">
	<g>
		<path class="st0" d="M0.6,0.2C0.4,0.3,0.3,0.4,0.2,0.7c0-0.1,0-0.2,0.1-0.3C0.4,0.3,0.5,0.3,0.6,0.2z"/>
		<path class="st0" d="M19.8,19.2c0,0.2,0,0.3-0.2,0.4c-0.1,0.1-0.2,0.1-0.3,0.1c0.1,0,0.1-0.1,0.2-0.1
			C19.7,19.6,19.8,19.4,19.8,19.2c0-4.2,0-8.3,0-12.5v-6c0-0.3-0.1-0.5-0.4-0.6c0,0,0,0,0,0c0.1,0,0.2,0,0.3,0.1
			c0.1,0.1,0.2,0.2,0.2,0.4c0,0,0,0,0,0.1C19.8,6.9,19.8,13.1,19.8,19.2z"/>
		<path class="st0" d="M0.6,19.8c-0.1,0-0.2,0-0.3-0.1c-0.1-0.1-0.1-0.2-0.1-0.3C0.3,19.6,0.4,19.7,0.6,19.8z"/>
		<path class="st0" d="M19.8,19.2c0,0.2-0.1,0.3-0.2,0.5c-0.1,0-0.1,0.1-0.2,0.1H6.8c0,0,0-5.9,0-5.9c0-0.2,0-0.4,0-0.6
			c0,0,0-0.1,0.1-0.1c0,0,0,0,0.1,0c1.3,0,2.6,0,3.9,0c1.3,0,2.4-0.4,3.4-1.2c0.9-0.8,1.5-1.7,1.7-2.9c0.2-1,0.1-2-0.3-2.9
			c-0.5-1.3-1.4-2.2-2.7-2.7c-0.7-0.3-1.4-0.4-2.2-0.4c-1,0-2,0-2.9,0C7,3.1,6.3,3.3,5.7,3.6C5.5,3.8,5.3,3.9,5.1,4.1c0,0,0,0,0,0
			C4.3,4.8,4.3,5.9,4.2,6c0,1.3,0,2.7,0,4c0,0,0,7.3,0,7.5c0,0,0,0,0,0c0,0.2,0,0.3,0,0.5c0,0.4,0,1.1,0,1.5c0,0.2-0.1,0.3-0.3,0.3
			H0.7c0,0-0.1,0-0.1,0c-0.2-0.1-0.3-0.2-0.3-0.3c0,0,0-0.1,0-0.1V0.7c0.1-0.2,0.2-0.3,0.4-0.4h18.7c0,0,0,0,0,0
			c0.3,0.1,0.4,0.3,0.4,0.6v6C19.8,10.9,19.8,15.1,19.8,19.2z"/>
		<path class="st0" d="M13.2,9.1c-0.3,0.9-0.9,1.5-1.8,1.7c-0.3,0.1-0.7,0.1-1.1,0.1c-1.2,0-2.3,0-3.5,0c-0.1,0-0.1,0-0.1-0.1
			c0-0.9,0-1.8,0-2.7c0-0.9,0-1.8,0-2.7c0-0.1,0-0.1,0.1-0.1c1.2,0,2.4,0,3.6,0c0.7,0,1.4,0.2,1.9,0.6c0.6,0.5,0.8,1.1,0.9,1.8
			C13.4,8.2,13.4,8.7,13.2,9.1z"/>
	</g>
</g>
</svg>
